<mxGraphModel dx="0" dy="0" grid="1" gridSize="10" guides="1" tooltips="1" connect="1" arrows="1" fold="1" page="0" pageScale="1" background="none" math="0" shadow="0">
  <root>
    <mxCell id="0" />
    <mxCell id="1" parent="0" />
    <mxCell id="node0" parent="1" vertex="1" value="&lt;p style=&quot;margin:0px;margin-top:4px;text-align:center;&quot;&gt;&lt;b&gt;MedicChangeLogController&lt;/b&gt;&lt;/p&gt;&lt;hr size=&quot;1&quot;/&gt;&lt;p style=&quot;margin:0 0 0 4px;line-height:1.6;&quot;&gt;+ updatePatient(Integer, MedicChangeLog): MedicChangeLog&lt;br/&gt;+ createMedicChangeLog(MedicChangeLog, UriComponentsBuilder): ResponseEntity&amp;lt;MedicChangeLog&amp;gt;&lt;br/&gt;+ getChangeLogByPatientId(Integer): MedicChangeLog&lt;br/&gt;+ getChangeLogByMedicId(Integer): Iterable&amp;lt;MedicChangeLog&amp;gt;&lt;br/&gt;+ getChangeLogById(Integer): ResponseEntity&amp;lt;MedicChangeLog&amp;gt;&lt;br/&gt;+ delete(Integer): MedicChangeLog&lt;br/&gt;+ getAllChangeLogs(): Iterable&amp;lt;MedicChangeLog&amp;gt;&lt;/p&gt;" style="verticalAlign=top;align=left;overflow=fill;fontSize=14;fontFamily=Helvetica;html=1;rounded=0;shadow=0;comic=0;labelBackgroundColor=none;strokeWidth=1;">
      <mxGeometry x="521" y="437" width="686" height="192" as="geometry" />
    </mxCell>
    <mxCell id="node4" parent="1" vertex="1" value="&lt;p style=&quot;margin:0px;margin-top:4px;text-align:center;&quot;&gt;&lt;b&gt;MedicController&lt;/b&gt;&lt;/p&gt;&lt;hr size=&quot;1&quot;/&gt;&lt;p style=&quot;margin:0 0 0 4px;line-height:1.6;&quot;&gt;+ getMedicById(Integer): ResponseEntity&amp;lt;Medic&amp;gt;&lt;br/&gt;+ updateMedic(Integer, Medic): Medic&lt;br/&gt;+ deleteMedic(Integer): Medic&lt;br/&gt;+ createMedic(Medic, UriComponentsBuilder): ResponseEntity&amp;lt;Medic&amp;gt;&lt;br/&gt;+ getAllMedics(): Iterable&amp;lt;Medic&amp;gt;&lt;/p&gt;" style="verticalAlign=top;align=left;overflow=fill;fontSize=14;fontFamily=Helvetica;html=1;rounded=0;shadow=0;comic=0;labelBackgroundColor=none;strokeWidth=1;">
      <mxGeometry x="521" y="-4" width="474" height="146" as="geometry" />
    </mxCell>
    <mxCell id="node3" parent="1" vertex="1" value="&lt;p style=&quot;margin:0px;margin-top:4px;text-align:center;&quot;&gt;&lt;b&gt;NotificationController&lt;/b&gt;&lt;/p&gt;&lt;hr size=&quot;1&quot;/&gt;&lt;p style=&quot;margin:0 0 0 4px;line-height:1.6;&quot;&gt;+ toggleSeenUserNotifications(Integer): Notification&lt;br/&gt;+ updateUserNotification(Notification, Integer): Notification&lt;br/&gt;+ getNotificationByUser(Integer, Integer): Optional&amp;lt;Notification&amp;gt;&lt;br/&gt;+ createUserNotification(Notification, Integer, UriComponentsBuilder): ResponseEntity&amp;lt;Notification&amp;gt;&lt;br/&gt;+ deleteNotificationById(Integer): Notification&lt;br/&gt;+ getAllNotificationByUser(Integer): Iterable&amp;lt;Notification&amp;gt;&lt;br/&gt;+ deleteUserNotificationByUserId(Integer): Notification&lt;br/&gt;+ getAllNotifications(): Iterable&amp;lt;Notification&amp;gt;&lt;br/&gt;+ toggleSeenAllUserNotifications(Integer): Iterable&amp;lt;Notification&amp;gt;&lt;br/&gt;+ getNotificationById(Integer): Optional&amp;lt;Notification&amp;gt;&lt;br/&gt;+ updateNotification(Notification, Integer): Notification&lt;/p&gt;" style="verticalAlign=top;align=left;overflow=fill;fontSize=14;fontFamily=Helvetica;html=1;rounded=0;shadow=0;comic=0;labelBackgroundColor=none;strokeWidth=1;">
      <mxGeometry x="-128" y="311" width="585" height="284" as="geometry" />
    </mxCell>
    <mxCell id="node5" parent="1" vertex="1" value="&lt;p style=&quot;margin:0px;margin-top:4px;text-align:center;&quot;&gt;&lt;b&gt;PatientController&lt;/b&gt;&lt;/p&gt;&lt;hr size=&quot;1&quot;/&gt;&lt;p style=&quot;margin:0 0 0 4px;line-height:1.6;&quot;&gt;+ deletePatient(Integer): Patient&lt;br/&gt;+ createPatient(Patient, UriComponentsBuilder): ResponseEntity&amp;lt;Patient&amp;gt;&lt;br/&gt;+ updatePatient(Integer, Patient): Patient&lt;br/&gt;+ getAllPatients(): Iterable&amp;lt;Patient&amp;gt;&lt;br/&gt;+ getPatientById(Integer): ResponseEntity&amp;lt;Patient&amp;gt;&lt;/p&gt;" style="verticalAlign=top;align=left;overflow=fill;fontSize=14;fontFamily=Helvetica;html=1;rounded=0;shadow=0;comic=0;labelBackgroundColor=none;strokeWidth=1;">
      <mxGeometry x="519" y="203" width="492" height="146" as="geometry" />
    </mxCell>
    <mxCell id="node1" parent="1" vertex="1" value="&lt;p style=&quot;margin:0px;margin-top:4px;text-align:center;&quot;&gt;&lt;b&gt;ReportController&lt;/b&gt;&lt;/p&gt;&lt;hr size=&quot;1&quot;/&gt;&lt;p style=&quot;margin:0 0 0 4px;line-height:1.6;&quot;&gt;+ deleteUserReportById(Integer): Report&lt;br/&gt;+ updateReport(Report, Integer): Report&lt;br/&gt;+ getReportById(Integer): Optional&amp;lt;Report&amp;gt;&lt;br/&gt;+ createReport(Report, UriComponentsBuilder): ResponseEntity&amp;lt;Report&amp;gt;&lt;br/&gt;+ createUserReport(Report, Integer, UriComponentsBuilder): ResponseEntity&amp;lt;Report&amp;gt;&lt;br/&gt;+ updateUserReport(Report, Integer): Report&lt;br/&gt;+ getAllReports(): Iterable&amp;lt;Report&amp;gt;&lt;br/&gt;+ getReportsByUserId(Integer): Iterable&amp;lt;Report&amp;gt;&lt;br/&gt;+ getReportsByPatientId(Integer): Iterable&amp;lt;Report&amp;gt;&lt;br/&gt;+ getUserReportById(Integer, Integer): Optional&amp;lt;Report&amp;gt;&lt;br/&gt;+ getPatientReportById(Integer, Integer): Optional&amp;lt;Report&amp;gt;&lt;br/&gt;+ deleteReportById(Integer): Report&lt;/p&gt;" style="verticalAlign=top;align=left;overflow=fill;fontSize=14;fontFamily=Helvetica;html=1;rounded=0;shadow=0;comic=0;labelBackgroundColor=none;strokeWidth=1;">
      <mxGeometry x="1072" y="12" width="565" height="307" as="geometry" />
    </mxCell>
    <mxCell id="node2" parent="1" vertex="1" value="&lt;p style=&quot;margin:0px;margin-top:4px;text-align:center;&quot;&gt;&lt;b&gt;UserController&lt;/b&gt;&lt;/p&gt;&lt;hr size=&quot;1&quot;/&gt;&lt;p style=&quot;margin:0 0 0 4px;line-height:1.6;&quot;&gt;+ getUserById(Integer): ResponseEntity&amp;lt;User&amp;gt;&lt;br/&gt;+ register(User, UriComponentsBuilder): ResponseEntity&amp;lt;?&amp;gt;&lt;br/&gt;+ getPendingUsers(): Iterable&amp;lt;User&amp;gt;&lt;br/&gt;+ login(User): ResponseEntity&amp;lt;?&amp;gt;&lt;br/&gt;+ updatePendingUser(Integer): User&lt;br/&gt;+ deleteUser(Integer): User&lt;br/&gt;+ patchUser(Integer, User): User&lt;br/&gt;+ getAllUsers(): Iterable&amp;lt;User&amp;gt;&lt;br/&gt;+ updateUser(Integer, User): User&lt;/p&gt;" style="verticalAlign=top;align=left;overflow=fill;fontSize=14;fontFamily=Helvetica;html=1;rounded=0;shadow=0;comic=0;labelBackgroundColor=none;strokeWidth=1;">
      <mxGeometry x="49" y="-13" width="405" height="238" as="geometry" />
    </mxCell>
  </root>
</mxGraphModel>